<?xml version="1.0" encoding="UTF-8"?>
<svg xmlns="http://www.w3.org/2000/svg" version="1.1" viewBox="0 0 158.8 81.06">
  <defs>
    <clipPath id="big-emotion-letterforms" clipPathUnits="userSpaceOnUse">
      <path d="M1.34,54.88V1.23h40.54c5.62,0,9.85,1.23,12.68,3.68,2.84,2.45,4.25,5.67,4.25,9.66,0,1.99-.43,3.9-1.3,5.71-.87,1.81-2.31,3.33-4.33,4.56-2.02,1.23-4.76,1.97-8.24,2.22v1.53c5.42.31,9.36,1.6,11.84,3.87,2.48,2.27,3.72,5.15,3.72,8.62,0,4.04-1.44,7.35-4.33,9.93-2.89,2.58-6.83,3.87-11.84,3.87H1.34ZM22.5,22.15h11.11c.97,0,1.74-.28,2.3-.84.56-.56.84-1.3.84-2.22s-.28-1.66-.84-2.22c-.56-.56-1.33-.84-2.3-.84h-11.11v6.13ZM22.5,40.09h12.34c.97,0,1.74-.28,2.3-.84.56-.56.84-1.3.84-2.22s-.28-1.66-.84-2.22c-.56-.56-1.33-.84-2.3-.84h-12.34v6.13ZM113.17,56.1c-3.12,0-6.2-.55-9.24-1.65-3.04-1.1-5.81-2.72-8.32-4.87-2.5-2.15-4.5-4.83-5.98-8.05-1.48-3.22-2.22-6.95-2.22-11.19v-4.68c0-5.31,1.34-9.89,4.02-13.72,2.68-3.83,6.4-6.78,11.15-8.85,4.75-2.07,10.19-3.1,16.33-3.1,4.8,0,9.3.69,13.49,2.07,4.19,1.38,7.77,3.49,10.73,6.32,2.96,2.84,4.98,6.48,6.05,10.92l-21.61,4.06c-.51-2.2-1.64-3.78-3.37-4.75-1.74-.97-3.55-1.46-5.44-1.46-2.4,0-4.47.73-6.21,2.18-1.74,1.46-2.61,3.56-2.61,6.32v4.68c0,2.91.96,5.25,2.87,7.01,1.92,1.76,4.36,2.64,7.32,2.64,2.2,0,4.16-.48,5.9-1.46,1.74-.97,2.89-2.32,3.45-4.06h-11.27v-8.74h31.27v29.12h-18.09l.69-8.89h-1.38c-.72,2.25-1.98,4.13-3.79,5.63-1.81,1.51-3.92,2.63-6.32,3.37-2.4.74-4.88,1.11-7.43,1.11ZM149.4,1.23h-1.28v.7h1.28v3.62h.83V1.93h1.29v-.7h-2.12ZM156.01,1.23l-1.27,3.4h-.03l-1.28-3.4h-1.25v4.33h.78l-.05-3.49h.07l1.35,3.49h.72l1.37-3.49h.07l-.05,3.49h.79V1.23h-1.2ZM.92,79.83v-19.26h18.11v5.56h-10.4v1.71h7.43v4.73h-7.43v1.71h10.4v5.56H.92ZM20.87,79.83v-19.26h10.62l3.22,9.03,3.22-9.03h10.62v19.26h-7.43v-10.04l-3.58,10.04h-5.67l-3.58-10.04v10.04h-7.43ZM61.51,80.27c-2.2,0-4.15-.39-5.86-1.18s-3.04-1.88-4-3.28c-.96-1.39-1.44-2.99-1.44-4.79v-1.65c0-1.82.48-3.42,1.44-4.8.96-1.38,2.3-2.47,4-3.26,1.71-.79,3.66-1.18,5.86-1.18s4.18.39,5.87,1.18c1.7.79,3.03,1.88,3.99,3.26.96,1.39,1.44,2.99,1.44,4.8v1.65c0,1.8-.48,3.39-1.44,4.79-.96,1.39-2.29,2.49-3.99,3.28-1.7.79-3.66,1.18-5.87,1.18ZM61.51,73.94c.92,0,1.68-.28,2.3-.85.61-.57.92-1.26.92-2.06v-1.65c0-.81-.31-1.49-.92-2.06-.61-.57-1.38-.85-2.3-.85s-1.66.28-2.28.85-.94,1.26-.94,2.06v1.65c0,.81.31,1.5.94,2.06s1.39.85,2.28.85ZM78.82,79.83v-12.88h-5.67v-6.38h19.01v6.38h-5.64v12.88h-7.7ZM93.54,79.83v-19.26h7.7v19.26h-7.7ZM114.21,80.27c-2.2,0-4.15-.39-5.86-1.18-1.71-.79-3.04-1.88-4-3.28-.96-1.39-1.44-2.99-1.44-4.79v-1.65c0-1.82.48-3.42,1.44-4.8.96-1.38,2.3-2.47,4-3.26,1.71-.79,3.66-1.18,5.86-1.18s4.18.39,5.87,1.18c1.7.79,3.03,1.88,3.99,3.26.96,1.39,1.44,2.99,1.44,4.8v1.65c0,1.8-.48,3.39-1.44,4.79-.96,1.39-2.29,2.49-3.99,3.28-1.7.79-3.66,1.18-5.87,1.18ZM114.21,73.94c.92,0,1.68-.28,2.3-.85s.92-1.26.92-2.06v-1.65c0-.81-.31-1.49-.92-2.06s-1.38-.85-2.3-.85-1.66.28-2.28.85-.94,1.26-.94,2.06v1.65c0,.81.31,1.5.94,2.06s1.39.85,2.28.85ZM127.17,79.83v-19.26h7.32l6.99,8.42v-8.42h7.43v19.26h-7.32l-6.99-8.42v8.42h-7.43Z"/>
  <g>
        <rect x="63.98" y="1.23" width="19.93" height="29.06"/>
        <circle cx="74" cy="44.71" r="11.39"/>
      </g>
    </clipPath>
  </defs>
  <g clip-path="url(#big-emotion-letterforms)">
    <path class="territory" fill="#f54432" d="M0 0h158.8v81.06H0z"/>
    <path class="territory" fill="#55d47b" d="M0 0h51.5c-3.8 7.4.7 13.8-4.9 20.4-7 8.2-25.9 9.5-46.6 2.2z"/>
    <path class="territory" fill="#ff9c20" d="M38.7 0h51.8c5.2 10.2.2 21.1-9.6 27.3-10.5 6.7-28 5.2-38.1-2.7-7.2-5.6-9.1-15.4-4.1-24.6z"/>
    <path class="territory" fill="#4677d5" d="M0 28.3c17.2-8.1 37.5-5.8 48.8 5.6 7 7.1 7.1 16.2 1.7 25.8L0 62.2z"/>
    <path class="territory" fill="#55d47b" d="M46.4 28.4c12.2-7.7 27.8-6.5 37.9 3.5 7.8 7.7 7.8 19.2.9 29.1H50.1c5.7-11.5 4.7-22.9-3.7-32.6z"/>
    <path class="territory" fill="#4677d5" d="M82.1 0h45.6c4.1 9.4.3 18.2-8.7 24.2-9.5 6.3-24 5.3-33.4-2.4-6.5-5.3-7.7-13.6-3.5-21.8z"/>
    <path class="territory" fill="#ff9c20" d="M80.6 24.2c10.7-7.7 26.5-7.5 37.4.4 8.8 6.5 11.3 17.2 6.2 27.1-6.2 12-22.9 16.2-37.8 9.4-11.2-5.2-14.1-19.6-5.8-36.9z"/>
    <path class="territory" fill="#55d47b" d="M119.2 0h39.6v29.3c-14.6 6.2-29 2.5-36.8-8.4-4.3-6-5.2-13.1-2.8-20.9z"/>
    <path class="territory" fill="#4677d5" d="M124.4 28.1c11.6-5.7 24.1-3.4 34.4 5.6v28.8l-40.2-1.6c8.2-10.5 10.1-21.4 5.8-32.8z"/>
    <path class="territory" fill="#55d47b" d="M0 58.3c13.6-4.8 29.5-2.7 39.1 5.6 5.8 5 7 10.7 3.8 17.2H0z"/>
    <path class="territory" fill="#ff9c20" d="M37.5 58.1c13.2-5.8 30.1-3.3 39.1 5.4 5.1 5 5.8 11 .9 17.6H42.2c3.2-8.1 1.7-15.9-4.7-23z"/>
    <path class="territory" fill="#4677d5" d="M73.9 61.8c14.3-7.8 33.3-7.6 46.5.3 8.5 5.1 11.8 11.5 10.1 19H76.9c4.1-6.9 3.1-13.3-3-19.3z"/>
  </g>
</svg>
